<?xml version="1.0" encoding="UTF-8" standalone="no"?><!DOCTYPE svg PUBLIC "-//W3C//DTD SVG 1.1//EN" "http://www.w3.org/Graphics/SVG/1.1/DTD/svg11.dtd"><svg width="100%" height="100%" viewBox="0 0 4167 1109" version="1.1" xmlns="http://www.w3.org/2000/svg" xmlns:xlink="http://www.w3.org/1999/xlink" xml:space="preserve" xmlns:serif="http://www.serif.com/" style="fill-rule:evenodd;clip-rule:evenodd;stroke-linejoin:round;stroke-miterlimit:2;"><path id="logo" d="M296.067,163.242l259.016,-57.204l81.042,376.608l49.262,-446.529l266.967,27.012l-74.687,683.304c-13.317,140.796 -49.284,289.238 -150.646,302.646c-546.492,72.304 -809.575,-232.462 -675.913,-365.004c65.554,-65.008 195.775,-116.958 326,-137.867l-81.041,-382.966Zm338.833,481.683c25.358,0 45.95,20.592 45.95,45.95c-0,25.362 -20.592,45.954 -45.95,45.954c-25.363,0 -45.954,-20.592 -45.954,-45.954c-0,-25.358 20.591,-45.95 45.954,-45.95Zm-187.871,-27.075c25.358,0 45.95,20.588 45.95,45.95c0,25.362 -20.592,45.954 -45.95,45.954c-25.362,0 -45.954,-20.591 -45.954,-45.954c-0,-25.362 20.592,-45.95 45.954,-45.95Z" style="fill:#fff;"/><g id="deliveboo"><path d="M1418.77,521.017l-0.7,-188.246l85.429,-0l-0,414.125c3.846,26.612 8.587,50.75 14.604,66.516l-89.454,0.009l-8.95,-42.933l-0,-0.496c-27.721,30.5 -65.625,51.908 -107.396,51.908c-84.867,0 -153.771,-80.246 -153.771,-175.892c0,-95.646 68.904,-173.3 153.771,-173.3c41.304,0 78.829,18.396 106.467,48.309Zm-86.534,42.816c48.721,0 84.209,35.209 84.209,82.579c-0,47.375 -36.3,81.855 -85.021,81.855c-48.721,-0 -85.021,-34.48 -85.021,-81.855c-0,-47.37 37.112,-82.579 85.833,-82.579Z" style="fill:#fff;"/><path d="M1557.64,623.175c0.529,-85.621 81.141,-152.029 166.896,-152.029c85.458,-0 166.079,65.917 167.17,151.104c1.3,18.933 -0.766,49.663 -3.933,62.225l-238.233,0.054c4.446,8.279 10.337,15.95 17.358,22.567l0.108,-0.058c0.071,0.12 0.142,0.241 0.213,0.362c15.183,14.171 35.562,23.45 57.958,23.475l0,0.362c37.588,1.309 83.558,-9.812 112.867,-25.012l41.325,71.579c-51.404,29.634 -106.2,43.184 -154.979,41.542c-15.284,-0.079 -30.088,-2.192 -44.134,-6.075c-31.545,-7.988 -58.47,-23.629 -77.325,-46.592c-27.166,-28.783 -44.233,-67.15 -45.27,-109.404c-0.017,-0.367 -0.025,-0.733 -0.025,-1.104c-0.017,-0.942 -0.025,-1.883 -0.025,-2.825l0.025,-0l-0,-29.904c-0,-0.088 -0,-0.175 0.004,-0.267Zm246.716,-9.558c-8.583,-30.184 -26.125,-54.125 -79.82,-54.125c-53.505,-0 -71.113,24.083 -79.73,54.175c49.75,-0.004 111.571,-0.017 159.55,-0.05Z" style="fill:#fff;"/><path id="L" d="M1947.24,333.738l85.212,-0l0,479.725l-85.942,-0l0.73,-479.725Z" style="fill:#fff;"/><g id="i"><rect x="2104.94" y="479.85" width="90.988" height="333.525" style="fill:#fff;"/><circle cx="2150.07" cy="381.775" r="55.192" style="fill:#fff;"/></g><path id="v" d="M2325.4,813.613l-88.304,-333.484l91.716,0l65.996,247.046l65.996,-247.046l91.717,0l-88.304,333.484l-138.817,-0Z" style="fill:#fff;"/><path d="M2575.85,623.175c0.533,-85.621 81.142,-152.029 166.896,-152.029c85.458,-0 166.079,65.917 167.171,151.104c1.3,18.933 -0.767,49.663 -3.934,62.225l-238.233,0.054c4.446,8.279 10.338,15.95 17.358,22.567l0.109,-0.058c0.071,0.12 0.141,0.241 0.212,0.362c15.184,14.171 35.563,23.45 57.959,23.475l-0,0.362c37.587,1.309 83.558,-9.812 112.866,-25.012l41.325,71.579c-51.404,29.634 -106.2,43.184 -154.979,41.542c-15.283,-0.079 -30.088,-2.192 -44.133,-6.075c-31.546,-7.988 -58.471,-23.629 -77.321,-46.592c-27.171,-28.783 -44.238,-67.15 -45.275,-109.404c-0.017,-0.367 -0.025,-0.733 -0.025,-1.104c-0.017,-0.942 -0.025,-1.883 -0.025,-2.825l0.025,-0l-0,-29.904c-0,-0.088 0.004,-0.175 0.004,-0.267Zm246.717,-9.558c-8.584,-30.184 -26.125,-54.125 -79.821,-54.125c-53.504,-0 -71.113,24.083 -79.729,54.175c49.75,-0.004 111.571,-0.017 159.55,-0.05Z" style="fill:#fff;"/><path d="M3047.7,521.017l0.7,-188.246l-85.425,-0l0,414.125c-3.846,26.612 -8.591,50.75 -14.604,66.516l89.454,0.009l8.95,-42.933l0,-0.496c27.717,30.5 65.625,51.908 107.396,51.908c84.867,0 153.771,-80.246 153.771,-175.892c-0,-95.646 -68.904,-173.3 -153.771,-173.3c-41.304,0 -78.829,18.396 -106.471,48.309Zm86.538,42.816c-48.721,0 -84.209,35.209 -84.209,82.579c0,47.375 36.3,81.855 85.021,81.855c48.721,-0 85.021,-34.48 85.021,-81.855c-0,-47.37 -37.113,-82.579 -85.833,-82.579Z" style="fill:#fff;"/><path d="M3528.11,471.758c94.399,0 171.037,78.459 171.037,175.096c0,96.642 -76.638,175.1 -171.037,175.1c-94.396,0 -171.034,-78.458 -171.034,-175.1c0,-96.637 76.638,-175.096 171.034,-175.096Zm0.249,93.438c48.217,-0 87.363,36.954 87.363,82.471c0,45.516 -39.146,82.471 -87.363,82.471c-48.216,-0 -87.362,-36.955 -87.362,-82.471c0,-45.517 39.146,-82.471 87.362,-82.471Z" style="fill:#fff;"/><path d="M3909.38,471.758c94.396,0 171.034,78.459 171.034,175.096c-0,96.642 -76.638,175.1 -171.034,175.1c-94.396,0 -171.037,-78.458 -171.037,-175.1c-0,-96.637 76.641,-175.096 171.037,-175.096Zm0.25,93.438c48.217,-0 87.363,36.954 87.363,82.471c-0,45.516 -39.146,82.471 -87.363,82.471c-48.221,-0 -87.366,-36.955 -87.366,-82.471c-0,-45.517 39.145,-82.471 87.366,-82.471Z" style="fill:#fff;"/></g></svg>