<?xml version="1.0" encoding="UTF-8" standalone="no"?><!DOCTYPE svg PUBLIC "-//W3C//DTD SVG 1.1//EN" "http://www.w3.org/Graphics/SVG/1.1/DTD/svg11.dtd"><svg width="100%" height="100%" viewBox="0 0 12175 2065" version="1.1" xmlns="http://www.w3.org/2000/svg" xmlns:xlink="http://www.w3.org/1999/xlink" xml:space="preserve" xmlns:serif="http://www.serif.com/" style="fill-rule:evenodd;clip-rule:evenodd;stroke-linejoin:round;stroke-miterlimit:2;"><path d="M1084.33,810.142l-2.917,-784.359l355.954,0l0,1725.52c16.025,110.884 35.78,211.459 60.85,277.15l-372.725,0.038l-37.291,-178.888l-0,-2.066c-115.504,127.083 -273.438,216.283 -447.484,216.283c-353.612,-0 -640.712,-334.358 -640.712,-732.884c-0,-398.524 287.1,-722.083 640.712,-722.083c172.1,0 328.455,76.65 443.613,201.288Zm-360.558,178.4c203.004,-0 350.87,146.704 350.87,344.079c0,197.396 -151.25,341.062 -354.254,341.062c-203.004,0 -354.254,-143.666 -354.254,-341.062c0,-197.375 154.633,-344.079 357.638,-344.079Z" style="fill:#fff;"/><path d="M1662.95,1235.8c2.204,-356.754 338.087,-633.454 695.4,-633.454c356.075,-0 691.996,274.654 696.542,629.6c5.416,78.887 -3.192,206.929 -16.388,259.271l-992.637,0.225c18.525,34.496 43.071,66.458 72.325,94.029l0.45,-0.242c0.295,0.5 0.591,1.004 0.887,1.509c63.263,59.045 148.175,97.708 241.492,97.812l-0,1.508c156.617,5.455 348.158,-40.883 470.279,-104.216l172.188,298.245c-214.184,123.476 -442.501,179.934 -645.746,173.092c-63.684,-0.329 -125.367,-9.133 -183.892,-25.312c-131.438,-33.284 -243.625,-98.455 -322.188,-194.134c-113.191,-119.929 -184.304,-279.791 -188.625,-455.85c-0.07,-1.529 -0.104,-3.054 -0.104,-4.6c-0.071,-3.925 -0.104,-7.846 -0.104,-11.771l0.104,0l0,-124.6c0,-0.366 0,-0.729 0.017,-1.112Zm1027.98,-39.825c-35.762,-125.767 -108.854,-225.521 -332.583,-225.521c-222.938,0 -296.304,100.346 -332.208,225.729c207.291,-0.016 464.879,-0.071 664.791,-0.208Z" style="fill:#fff;"/><path id="L" d="M3286.28,29.813l355.05,-0.001l0,1998.86l-358.091,-0l3.041,-1998.86Z" style="fill:#fff;"/><rect x="3943.37" y="638.613" width="379.117" height="1389.69" style="fill:#fff;"/><circle cx="4131.41" cy="229.967" r="229.967" style="fill:#fff;"/><path id="v" d="M4861.95,2029.29l-367.933,-1389.52l382.15,0l274.983,1029.36l274.983,-1029.36l382.154,0l-367.933,1389.52l-578.404,-0Z" style="fill:#fff;"/><path d="M5905.49,1235.8c2.22,-356.754 338.091,-633.454 695.4,-633.454c356.075,-0 691.996,274.654 696.545,629.6c5.417,78.887 -3.195,206.929 -16.391,259.271l-992.638,0.225c18.525,34.496 43.075,66.458 72.325,94.029l0.454,-0.242c0.296,0.5 0.588,1.004 0.884,1.509c63.266,59.045 148.179,97.708 241.496,97.812l-0,1.508c156.612,5.455 348.158,-40.883 470.275,-104.216l172.187,298.245c-214.183,123.476 -442.5,179.934 -645.746,173.092c-63.679,-0.329 -125.366,-9.133 -183.887,-25.312c-131.442,-33.284 -243.629,-98.455 -322.171,-194.134c-113.212,-119.929 -184.325,-279.791 -188.646,-455.85c-0.071,-1.529 -0.104,-3.054 -0.104,-4.6c-0.071,-3.925 -0.104,-7.846 -0.104,-11.771l0.104,0l-0,-124.6c-0,-0.366 0.017,-0.729 0.017,-1.112Zm1027.99,-39.825c-35.766,-125.767 -108.854,-225.521 -332.587,-225.521c-222.934,0 -296.304,100.346 -332.204,225.729c207.291,-0.016 464.879,-0.071 664.791,-0.208Z" style="fill:#fff;"/><path d="M7871.53,810.142l2.917,-784.359l-355.938,0l0,1725.52c-16.025,110.884 -35.795,211.459 -60.85,277.15l372.725,0.038l37.292,-178.888l0,-2.066c115.488,127.083 273.438,216.283 447.483,216.283c353.613,-0 640.713,-334.358 640.713,-732.884c0,-398.524 -287.1,-722.083 -640.713,-722.083c-172.1,0 -328.454,76.65 -443.629,201.288Zm360.575,178.4c-203.004,-0 -350.871,146.704 -350.871,344.079c0.001,197.396 151.251,341.062 354.255,341.062c203.004,0 354.254,-143.666 354.254,-341.062c-0,-197.375 -154.638,-344.079 -357.638,-344.079Z" style="fill:#fff;"/><path d="M9873.24,604.896c393.329,-0 712.654,326.912 712.654,729.567c-0,402.675 -319.325,729.583 -712.654,729.583c-393.317,-0 -712.642,-326.908 -712.642,-729.583c-0,-402.655 319.325,-729.567 712.642,-729.567Zm1.037,389.325c200.904,-0 364.013,153.975 364.013,343.629c-0,189.65 -163.109,343.629 -364.013,343.629c-200.9,0 -364.008,-153.979 -364.008,-343.629c-0,-189.654 163.108,-343.629 364.008,-343.629Z" style="fill:#fff;"/><path d="M11461.9,604.896c393.316,-0 712.641,326.912 712.641,729.567c0,402.675 -319.325,729.583 -712.641,729.583c-393.317,-0 -712.654,-326.908 -712.654,-729.583c-0,-402.655 319.337,-729.567 712.654,-729.567Zm1.041,389.325c200.905,-0 364.013,153.975 364.013,343.629c-0,189.65 -163.109,343.629 -364.013,343.629c-200.921,0 -364.025,-153.979 -364.025,-343.629c0,-189.654 163.104,-343.629 364.025,-343.629Z" style="fill:#fff;"/></svg>