<?xml version="1.0" encoding="UTF-8" standalone="no"?><!DOCTYPE svg PUBLIC "-//W3C//DTD SVG 1.1//EN" "http://www.w3.org/Graphics/SVG/1.1/DTD/svg11.dtd"><svg width="100%" height="100%" viewBox="0 0 225 246" version="1.1" xmlns="http://www.w3.org/2000/svg" xmlns:xlink="http://www.w3.org/1999/xlink" xml:space="preserve" xmlns:serif="http://www.serif.com/" style="fill-rule:evenodd;clip-rule:evenodd;stroke-linejoin:round;stroke-miterlimit:2;"><path d="M67.03,30.51l62.165,-13.729l19.45,90.386l11.823,-107.167l64.071,6.483l-17.925,163.993c-3.195,33.791 -11.828,69.417 -36.154,72.635c-131.158,17.353 -194.298,-55.791 -162.22,-87.601c15.734,-15.602 46.987,-28.07 78.24,-33.088l-19.45,-91.912Zm81.32,115.604c6.087,0 11.029,4.942 11.029,11.029c-0,6.086 -4.942,11.028 -11.029,11.028c-6.087,0 -11.028,-4.942 -11.028,-11.028c-0,-6.087 4.941,-11.029 11.028,-11.029Zm-45.089,-6.498c6.087,-0 11.029,4.941 11.029,11.028c-0,6.087 -4.942,11.029 -11.029,11.029c-6.087,-0 -11.028,-4.942 -11.028,-11.029c-0,-6.087 4.941,-11.028 11.028,-11.028Z" style="fill:#fff;"/></svg>